<svg width="38" height="39" viewBox="0 0 38 39" fill="none" xmlns="http://www.w3.org/2000/svg">
<path d="M36.4358 11.9574C36.7108 12.8512 37.0529 13.7227 37.2827 14.6303C38.0482 17.6557 38.0993 20.9928 37.3782 24.0311C37.3424 24.1819 37.3048 24.3322 37.2653 24.4821C37.2259 24.632 37.1846 24.7814 37.1415 24.9303C37.0985 25.0791 37.0536 25.2275 37.0069 25.3752C36.9602 25.523 36.9118 25.6702 36.8615 25.8168C36.8112 25.9634 36.7592 26.1094 36.7055 26.2546C36.6516 26.4 36.5961 26.5447 36.5388 26.6886C36.4815 26.8327 36.4224 26.9759 36.3616 27.1185C36.3008 27.261 36.2383 27.4027 36.1741 27.5438C36.1098 27.6848 36.0439 27.825 35.9763 27.9645C35.9086 28.1038 35.8393 28.2424 35.7683 28.3801C35.6973 28.5178 35.6246 28.6546 35.5503 28.7906C35.476 28.9266 35.4 29.0616 35.3224 29.1957C35.2448 29.3299 35.1656 29.463 35.0848 29.5951C35.0039 29.7273 34.9215 29.8585 34.8374 29.9886C34.7534 30.1188 34.6678 30.2479 34.5806 30.376C34.4935 30.5041 34.4048 30.6311 34.3146 30.757C34.2243 30.8829 34.1325 31.0077 34.0392 31.1314C33.946 31.2551 33.8512 31.3776 33.755 31.499C33.6587 31.6203 33.561 31.7405 33.4618 31.8596C33.3626 31.9785 33.262 32.0963 33.16 32.2128C33.058 32.3294 32.9546 32.4446 32.8497 32.5587C32.7449 32.6727 32.6387 32.7854 32.5311 32.8968C32.4235 33.0083 32.3147 33.1184 32.2044 33.2272C32.0942 33.336 31.9826 33.4434 31.8698 33.5494C31.757 33.6555 31.6429 33.7602 31.5275 33.8635C31.4121 33.9668 31.2954 34.0686 31.1775 34.1691C31.0596 34.2695 30.9406 34.3685 30.8203 34.466C30.7 34.5636 30.5786 34.6597 30.456 34.7542C30.3334 34.8488 30.2097 34.9419 30.0848 35.0334C29.9599 35.125 29.834 35.2151 29.7069 35.3036C29.5799 35.3921 29.4518 35.479 29.3226 35.5644C29.1935 35.6497 29.0633 35.7335 28.9321 35.8158C28.7998 35.8984 28.6665 35.9795 28.5323 36.0589C28.3979 36.1383 28.2627 36.216 28.1265 36.292C27.9903 36.3681 27.8531 36.4424 27.7151 36.5151C27.577 36.5877 27.4381 36.6586 27.2983 36.7278C27.1585 36.797 27.0179 36.8644 26.8764 36.9302C26.7349 36.9958 26.5926 37.0598 26.4496 37.1219C26.3065 37.1841 26.1627 37.2446 26.0182 37.3031C25.8737 37.3618 25.7284 37.4186 25.5824 37.4736C25.4365 37.5286 25.2899 37.5817 25.1427 37.6332C24.9953 37.6845 24.8475 37.734 24.699 37.7817C24.5505 37.8295 24.4014 37.8753 24.2518 37.9193C24.1022 37.9633 23.9521 38.0054 23.8014 38.0457C23.6507 38.086 23.4996 38.1244 23.3479 38.1609C23.1963 38.1975 23.0443 38.2321 22.8918 38.2649C22.7394 38.2976 22.5865 38.3285 22.4333 38.3575C22.28 38.3865 22.1265 38.4136 21.9726 38.4387C21.8187 38.4639 21.6645 38.4871 21.51 38.5085C21.3555 38.5298 21.2008 38.5492 21.0458 38.5667C20.8909 38.5842 20.7357 38.5998 20.5804 38.6134C20.425 38.6271 20.2695 38.6388 20.1139 38.6486C19.9583 38.6584 19.8026 38.6663 19.6467 38.6722C19.4909 38.6781 19.335 38.6821 19.1791 38.6842C19.0232 38.6863 18.8673 38.6865 18.7113 38.6847C18.5554 38.6828 18.3995 38.6791 18.2437 38.6734C18.0878 38.6678 17.9321 38.6602 17.7765 38.6507C17.6208 38.6411 17.4653 38.6297 17.3099 38.6162C17.1545 38.6028 16.9994 38.5876 16.8444 38.5703C16.6893 38.5531 16.5346 38.5339 16.3801 38.5128C16.2256 38.4918 16.0714 38.4688 15.9175 38.4439C15.7635 38.419 15.6098 38.3922 15.4566 38.3635C15.3033 38.3348 15.1504 38.3042 14.9979 38.2717C14.8453 38.2392 14.6932 38.2049 14.5415 38.1686C14.39 38.1313 14.239 38.0923 14.0884 38.0513C13.9379 38.0104 13.7878 37.9676 13.6383 37.923C13.4888 37.8784 13.3398 37.832 13.1914 37.7838C13.043 37.7355 12.8952 37.6854 12.748 37.6336C12.6009 37.5817 12.4543 37.5281 12.3085 37.4727C12.1626 37.4172 12.0175 37.3599 11.873 37.301C11.7285 37.242 11.5848 37.1812 11.4418 37.1187C11.2989 37.0562 11.1567 36.9919 11.0153 36.9259C10.8738 36.86 10.7332 36.7923 10.5934 36.7228C10.4537 36.6534 10.3148 36.5823 10.1768 36.5094C10.0387 36.4365 9.90159 36.362 9.76541 36.2858C9.62917 36.2097 9.49389 36.1319 9.35955 36.0524C9.22521 35.9729 9.09193 35.8917 8.95965 35.8089C8.82726 35.7262 8.69598 35.6419 8.56571 35.5559C8.43538 35.4699 8.30617 35.3823 8.17801 35.2932C8.04986 35.2041 7.92282 35.1134 7.79689 35.0212C7.67097 34.9289 7.54621 34.8351 7.42251 34.7399C7.29893 34.6446 7.17646 34.5478 7.05515 34.4495C6.93391 34.3512 6.81383 34.2515 6.69493 34.1502C6.57608 34.049 6.45851 33.9463 6.34217 33.8423C6.22577 33.7381 6.11071 33.6326 5.99693 33.5257C5.88321 33.4188 5.77071 33.3105 5.65955 33.2008C5.54846 33.0911 5.43869 32.9801 5.33025 32.8678C5.22181 32.7554 5.11477 32.6417 5.00914 32.5268C4.90346 32.4117 4.79921 32.2955 4.69638 32.178C4.59356 32.0605 4.49219 31.9417 4.39228 31.8217C4.29236 31.7017 4.19393 31.5805 4.09697 31.458C4.00002 31.3356 3.90456 31.2121 3.81061 31.0873C3.71666 30.9626 3.62424 30.8366 3.53334 30.7096C3.44245 30.5826 3.35314 30.4545 3.26539 30.3254C3.17761 30.1961 3.09142 30.0659 3.00683 29.9345C2.92225 29.8033 2.83929 29.671 2.75796 29.5376C2.67663 29.4021 2.59698 29.2655 2.519 29.128C2.44102 28.9904 2.36474 28.8519 2.29016 28.7125C2.21558 28.5731 2.14273 28.4328 2.0716 28.2916C2.00042 28.1503 1.93099 28.0083 1.86332 27.8654C1.79564 27.7225 1.72974 27.5788 1.66561 27.4342C1.60143 27.2897 1.53905 27.1445 1.47847 26.9983C1.41789 26.8523 1.35908 26.7055 1.30205 26.558C1.24508 26.4105 1.18989 26.2623 1.13651 26.1135C1.08313 25.9646 1.03159 25.8151 0.981907 25.6649C0.932222 25.5148 0.884358 25.3641 0.838317 25.2129C0.792282 25.0616 0.748113 24.9097 0.705822 24.7573C0.663531 24.6049 0.623112 24.452 0.584565 24.2986C0.54602 24.1453 0.509346 23.9914 0.474547 23.8371C0.439747 23.6828 0.406845 23.5282 0.375841 23.3731C0.344836 23.218 0.315752 23.0626 0.288593 22.9068C0.261383 22.7509 0.236097 22.5948 0.212732 22.4384C0.189368 22.282 0.167901 22.1253 0.148333 21.9683C0.128813 21.8114 0.111217 21.6542 0.0955418 21.4968C0.0798673 21.3395 0.0661163 21.1819 0.054286 21.0242C0.042456 20.8665 0.0325478 20.7086 0.0245625 20.5506C0.0166265 20.3927 0.0106127 20.2346 0.00652147 20.0765C0.00243028 19.9184 0.00026163 19.7602 1.51711e-05 19.6021C-0.000181996 19.4439 0.00154263 19.2858 0.00519022 19.1277C0.00883779 18.9695 0.0144328 18.8115 0.0219744 18.6535C0.029516 18.4955 0.0389803 18.3376 0.0503666 18.1798C0.0617529 18.0221 0.0750626 17.8645 0.0902935 17.707C0.105574 17.5496 0.122751 17.3925 0.141827 17.2354C0.160953 17.0784 0.181975 16.9216 0.204896 16.7651C0.227866 16.6087 0.252734 16.4525 0.279499 16.2966C0.306265 16.1407 0.334927 15.9852 0.365488 15.8301C0.396049 15.6749 0.428509 15.5201 0.462865 15.3657C0.497222 15.2114 0.533474 15.0574 0.571627 14.9039C1.7323 10.1146 4.97047 5.9457 9.15121 3.40228C9.28271 3.32225 9.41516 3.24385 9.5486 3.16708C9.68205 3.09031 9.81639 3.01519 9.95162 2.94173C10.087 2.86827 10.2231 2.79648 10.3602 2.72638C10.4972 2.65632 10.6351 2.58794 10.7738 2.52124C10.9126 2.45459 11.0521 2.38964 11.1924 2.3264C11.3328 2.26316 11.4739 2.20167 11.6157 2.14193C11.7576 2.08219 11.9001 2.02421 12.0434 1.96797C12.1867 1.91174 12.3307 1.85731 12.4753 1.80468C12.6199 1.752 12.7651 1.70113 12.911 1.65205C13.0569 1.60298 13.2033 1.5557 13.3503 1.51024C13.4974 1.46482 13.6449 1.4212 13.7931 1.37938C13.9412 1.33757 14.0898 1.2976 14.2389 1.25949C14.388 1.22132 14.5375 1.18503 14.6875 1.15062C14.8375 1.11616 14.9879 1.08358 15.1387 1.05287C15.2895 1.02216 15.4407 0.993305 15.5921 0.966302C15.7437 0.939344 15.8955 0.914241 16.0476 0.890983C16.1997 0.86778 16.3521 0.846428 16.5047 0.826926C16.6574 0.807475 16.8103 0.789901 16.9634 0.7742C17.1164 0.758549 17.2697 0.744776 17.4231 0.732876C17.5765 0.720926 17.7301 0.710909 17.8837 0.70281C18.0374 0.694716 18.1912 0.688518 18.345 0.684219C18.4988 0.679926 18.6526 0.677506 18.8065 0.676964C18.9604 0.676472 19.1143 0.677881 19.2681 0.681184C19.4219 0.684493 19.5757 0.689703 19.7295 0.696813C19.8831 0.703922 20.0368 0.712905 20.1902 0.723771C20.3437 0.734682 20.4971 0.747465 20.6503 0.762126C20.8035 0.776838 20.9565 0.793428 21.1092 0.811896C21.262 0.830358 21.4145 0.850699 21.5668 0.872917C21.719 0.89518 21.871 0.919299 22.0227 0.945269C22.1744 0.971288 22.3257 0.999157 22.4767 1.02888C22.6277 1.0586 22.7783 1.09019 22.9285 1.12366C23.0787 1.15709 23.2285 1.19239 23.3778 1.22956C23.4893 1.25657 23.6005 1.28462 23.7113 1.31369C23.8223 1.34277 23.933 1.37286 24.0433 1.40396C24.1537 1.43512 24.2638 1.46728 24.3736 1.50046C24.4833 1.53364 24.5928 1.56785 24.7019 1.6031C24.811 1.6383 24.9198 1.67452 25.0283 1.71174C25.1368 1.74901 25.2449 1.78728 25.3526 1.82653C25.4604 1.86577 25.5678 1.90601 25.6747 1.94724C25.7817 1.98851 25.8883 2.03077 25.9946 2.07402C26.1008 2.11727 26.2066 2.16148 26.3121 2.20665C26.4174 2.25188 26.5224 2.29807 26.6269 2.34521C26.7315 2.39241 26.8356 2.44054 26.9392 2.48962C27.0429 2.5387 27.1461 2.58876 27.2488 2.63981C27.3516 2.6908 27.4538 2.74277 27.5555 2.79569C27.6573 2.84862 27.7586 2.90248 27.8593 2.95728C27.9601 3.01208 28.0603 3.06782 28.16 3.1245C28.2597 3.18118 28.359 3.23877 28.4576 3.29727C28.5563 3.35582 28.6543 3.41526 28.7519 3.4756C28.8495 3.53592 28.9465 3.59717 29.0429 3.65933C29.1393 3.72148 29.2352 3.78453 29.3304 3.84846C29.4257 3.9124 29.5203 3.9772 29.6144 4.04286C29.7084 4.10857 29.8018 4.17515 29.8946 4.24258C29.9874 4.31003 30.0796 4.37831 30.1712 4.44743C30.2627 4.51659 30.3536 4.5866 30.4439 4.65742C30.5341 4.72824 30.6237 4.7999 30.7127 4.87245C30.8015 4.94495 30.8898 5.01828 30.9773 5.09246C31.0649 5.16657 31.1517 5.24147 31.2379 5.31727C31.3241 5.39306 31.4096 5.46964 31.4943 5.547C31.5791 5.6243 31.6631 5.70244 31.7464 5.78137C31.8297 5.86029 31.9123 5.93994 31.9941 6.02043C32.0759 6.10092 32.1569 6.18214 32.2373 6.26408C32.3176 6.34603 32.3971 6.42875 32.4759 6.51215C32.5546 6.5956 32.6326 6.67978 32.7099 6.76468C33.1597 7.25277 33.6997 7.78562 34.039 8.35911C34.0443 8.36794 34.0492 8.37694 34.0544 8.38583C33.6785 8.66379 33.3185 8.98648 32.9189 9.22823C29.8858 5.2247 25.9926 2.86752 21.0058 2.1857C18.2143 1.80402 15.1147 2.18488 12.5003 3.24395C10.9515 3.87135 9.52258 4.75037 8.19735 5.76063C4.65757 8.45894 2.1655 12.6822 1.57525 17.1083C0.98856 21.5078 2.08003 26.1066 4.79376 29.6463C4.88298 29.7644 4.97365 29.8815 5.06578 29.9975C5.1579 30.1135 5.25141 30.2284 5.3463 30.342C5.44123 30.4557 5.53755 30.5682 5.63525 30.6795C5.73293 30.7907 5.832 30.9009 5.93241 31.0097C6.03276 31.1186 6.13444 31.2262 6.23753 31.3325C6.34055 31.4389 6.44486 31.5439 6.5505 31.6477C6.65615 31.7515 6.76302 31.8539 6.87117 31.9551C6.97926 32.0562 7.08864 32.156 7.19924 32.2544C7.30985 32.3529 7.42162 32.45 7.53456 32.5457C7.64751 32.6413 7.76168 32.7356 7.87696 32.8285C7.99225 32.9214 8.1087 33.0129 8.22621 33.1029C8.34373 33.1929 8.46235 33.2814 8.58209 33.3685C8.70178 33.4556 8.82252 33.5412 8.94438 33.6253C9.06618 33.7094 9.18899 33.792 9.3128 33.8731C9.43672 33.9542 9.56153 34.0338 9.68735 34.1117C9.81311 34.1898 9.93987 34.2662 10.0675 34.3411C10.1952 34.416 10.3238 34.4893 10.4532 34.561C10.5827 34.6327 10.7131 34.7028 10.8443 34.7714C10.9755 34.8399 11.1075 34.9067 11.2403 34.972C11.3731 35.0372 11.5068 35.1009 11.6412 35.1628C11.7756 35.2248 11.9108 35.285 12.0467 35.3437C12.1825 35.4023 12.3191 35.4593 12.4563 35.5145C12.5937 35.5698 12.7316 35.6234 12.8702 35.6752C13.0088 35.7271 13.148 35.7772 13.2878 35.8257C13.4277 35.8741 13.5681 35.9208 13.7091 35.9657C13.85 36.0107 13.9916 36.0539 14.1337 36.0955C14.2756 36.1369 14.4182 36.1766 14.5612 36.2146C14.7042 36.2526 14.8476 36.2888 14.9916 36.3232C15.1355 36.3577 15.2798 36.3903 15.4245 36.4212C15.5692 36.4521 15.7143 36.4811 15.8597 36.5085C16.0051 36.5358 16.1509 36.5613 16.2969 36.5851C16.443 36.6088 16.5893 36.6306 16.7359 36.6507C16.877 36.6691 17.0183 36.6856 17.1598 36.7004C17.3013 36.7152 17.443 36.7283 17.5848 36.7396C17.7267 36.7509 17.8686 36.7605 18.0107 36.7683C18.1528 36.776 18.2949 36.7821 18.4372 36.7864C18.5794 36.7907 18.7216 36.7932 18.8639 36.794C19.0062 36.7948 19.1485 36.7938 19.2907 36.7911C19.433 36.7883 19.5752 36.7839 19.7173 36.7776C19.8595 36.7713 20.0015 36.7633 20.1435 36.7536C20.2855 36.7438 20.4273 36.7323 20.5689 36.719C20.7106 36.7058 20.8521 36.6907 20.9933 36.674C21.1347 36.6573 21.2757 36.6388 21.4165 36.6185C21.5574 36.5982 21.698 36.5763 21.8383 36.5526C21.9786 36.5289 22.1185 36.5034 22.2583 36.4762C22.398 36.4491 22.5373 36.4202 22.6762 36.3895C22.8152 36.3589 22.9537 36.3266 23.0919 36.2926C23.2301 36.2586 23.3678 36.2228 23.5051 36.1853C23.6424 36.1479 23.7792 36.1088 23.9155 36.068C24.0518 36.0272 24.1876 35.9847 24.3229 35.9405C24.4582 35.8964 24.5929 35.8505 24.7271 35.803C24.8612 35.7554 24.9948 35.7063 25.1277 35.6555C25.2606 35.6047 25.393 35.5523 25.5246 35.4982C25.6562 35.4441 25.7872 35.3884 25.9174 35.3311C26.0478 35.2739 26.1773 35.2149 26.3061 35.1545C26.435 35.094 26.563 35.0319 26.6903 34.9682C26.8177 34.9045 26.9441 34.8393 27.0698 34.7725C27.1955 34.7057 27.3204 34.6374 27.4443 34.5674C27.5684 34.4976 27.6914 34.4262 27.8137 34.3533C27.9359 34.2804 28.0573 34.206 28.1777 34.13C28.2981 34.0542 28.4176 33.9767 28.5362 33.8979C28.6547 33.819 28.7722 33.7387 28.8887 33.6569C29.0052 33.5751 29.1207 33.492 29.2352 33.4073C29.3497 33.3227 29.4631 33.2367 29.5755 33.1493C33.1389 30.3949 35.6599 26.3323 36.2291 21.8248C36.5142 19.5665 36.4163 16.9083 36.4083 14.6081C36.4063 14.0437 36.3207 12.4304 36.4358 11.9574Z" fill="#1B568E"/>
<path d="M36.2177 12.2422C36.2177 12.8582 36.1886 14.3226 36.1906 14.8853C36.1984 17.1791 36.2951 19.8298 36.0137 22.0817C35.4522 26.5766 32.965 30.6277 29.4492 33.3742C29.3384 33.4614 29.2264 33.5472 29.1135 33.6316C29.0005 33.716 28.8866 33.7989 28.7716 33.8805C28.6566 33.962 28.5407 34.0421 28.4238 34.1208C28.3068 34.1994 28.1889 34.2766 28.0701 34.3523C27.9513 34.428 27.8316 34.5022 27.711 34.5749C27.5904 34.6477 27.4689 34.7189 27.3465 34.7885C27.2242 34.8582 27.1011 34.9264 26.9771 34.993C26.853 35.0596 26.7282 35.1246 26.6026 35.1881C26.477 35.2516 26.3507 35.3135 26.2236 35.3738C26.0965 35.4342 25.9687 35.4929 25.8401 35.55C25.7116 35.6072 25.5824 35.6627 25.4525 35.7166C25.3226 35.7705 25.1921 35.8228 25.0609 35.8734C24.9298 35.9241 24.798 35.9732 24.6657 36.0206C24.5333 36.0679 24.4004 36.1136 24.2669 36.1577C24.1335 36.2017 23.9995 36.2441 23.865 36.2848C23.7305 36.3255 23.5955 36.3645 23.46 36.4018C23.3246 36.4392 23.1887 36.4748 23.0524 36.5088C22.9161 36.5427 22.7794 36.5749 22.6423 36.6055C22.5052 36.636 22.3677 36.6648 22.2299 36.6919C22.0921 36.719 21.9539 36.7444 21.8155 36.7681C21.6771 36.7917 21.5384 36.8136 21.3994 36.8338C21.2605 36.854 21.1213 36.8724 20.9819 36.8891C20.8425 36.9058 20.7029 36.9208 20.5632 36.934C20.4234 36.9472 20.2835 36.9587 20.1435 36.9684C20.0034 36.9782 19.8632 36.9862 19.7229 36.9924C19.5827 36.9986 19.4424 37.0031 19.302 37.0058C19.1617 37.0085 19.0213 37.0095 18.8809 37.0088C18.7405 37.008 18.6002 37.0054 18.4599 37.0012C18.3196 36.9969 18.1793 36.9909 18.0392 36.9831C17.899 36.9753 17.7589 36.9658 17.619 36.9545C17.4791 36.9432 17.3393 36.9302 17.1997 36.9155C17.06 36.9006 16.9206 36.8841 16.7814 36.8659C16.6367 36.8459 16.4924 36.824 16.3483 36.8004C16.2042 36.7767 16.0604 36.7512 15.917 36.724C15.7735 36.6968 15.6303 36.6678 15.4876 36.637C15.3448 36.6062 15.2024 36.5736 15.0605 36.5393C14.9185 36.505 14.7769 36.4688 14.6359 36.431C14.4947 36.3932 14.3541 36.3535 14.214 36.3122C14.0738 36.2708 13.9342 36.2277 13.7951 36.1828C13.656 36.138 13.5175 36.0914 13.3795 36.0431C13.2416 35.9948 13.1042 35.9448 12.9674 35.8931C12.8307 35.8414 12.6946 35.788 12.5591 35.7329C12.4237 35.6778 12.2889 35.621 12.1549 35.5625C12.0209 35.504 11.8875 35.4439 11.7549 35.3822C11.6223 35.3204 11.4904 35.2569 11.3594 35.1919C11.2283 35.1268 11.0981 35.0601 10.9687 34.9918C10.8392 34.9234 10.7106 34.8536 10.5828 34.7821C10.4551 34.7105 10.3283 34.6374 10.2023 34.5627C10.0763 34.4881 9.95129 34.4118 9.82715 34.334C9.70306 34.2563 9.57992 34.177 9.45778 34.0961C9.33553 34.0153 9.21434 33.9329 9.09421 33.849C8.97397 33.7651 8.85484 33.6798 8.73671 33.5929C8.61859 33.5061 8.50158 33.4178 8.38563 33.328C8.26967 33.2383 8.15478 33.1471 8.04106 33.0544C7.92728 32.9618 7.81467 32.8678 7.70323 32.7724C7.59179 32.6769 7.48152 32.5801 7.37237 32.482C7.26327 32.3838 7.15539 32.2843 7.04869 32.1835C6.94204 32.0826 6.83657 31.9804 6.73232 31.877C6.62812 31.7734 6.52521 31.6687 6.42357 31.5627C6.32189 31.4566 6.22153 31.3493 6.12252 31.2408C6.02345 31.1322 5.92572 31.0224 5.82932 30.9115C5.73293 30.8005 5.63787 30.6883 5.54423 30.5749C5.45061 30.4616 5.35837 30.3471 5.26747 30.2314C5.17657 30.1157 5.08712 29.999 4.99909 29.8812C2.32168 26.3515 1.24481 21.7656 1.82366 17.3785C2.406 12.9649 4.86472 8.75351 8.3571 6.06286C9.66467 5.05545 11.0744 4.17886 12.6025 3.55324C15.1819 2.49715 18.2401 2.11736 20.9942 2.49797C25.9143 3.17787 29.7554 5.52844 32.7479 9.52062C33.1422 9.2796 33.1291 9.27718 33.5 8.99999L35 7.99999C35 7.99999 35 7.99999 36 7.49999C36.1906 8.49999 36.1868 9.48683 36.1906 10.3934C36.1906 11.1268 36.1906 11 36.2177 12.2422Z" fill="#FEFEFE"/>
<path d="M25.0738 12.2959C27.9032 12.8254 31.237 11.7826 33.5848 10.2123C34.2875 9.7423 35.1358 9.15808 35.6605 8.50226L35.6599 20.7905C33.5763 22.789 29.9465 24.184 27.0382 24.1525C26.4044 24.1457 25.6332 24.1243 25.1144 23.7211C25.1405 23.4267 25.1516 23.1569 25.0795 22.8659L25.0738 12.2959Z" fill="#65B65C"/>
<path d="M13.9631 13.0314C14.4313 12.5782 15.5981 12.0264 16.2194 11.7385C18.0296 10.8998 19.876 10.2864 21.8908 10.1905C22.5238 10.1604 23.2408 10.1779 23.8428 10.3937C24.5913 10.6621 24.9813 11.1523 25.015 11.9388C25.0191 12.035 24.9998 12.2185 25.0493 12.3007C25.0544 12.3091 25.0619 12.3158 25.0682 12.3234L25.0738 22.5634C24.6537 22.0813 24.0603 21.8219 23.4444 21.6667C20.4879 20.9222 16.4821 22.7081 13.9541 24.153C13.9564 20.4497 13.8928 16.7336 13.9631 13.0314Z" fill="#F6A610"/>
<path d="M21.9881 22.4762C22.7752 22.4806 23.5608 22.5485 24.2497 22.9502C24.2412 23.2303 24.2212 23.4983 24.3232 23.7666C24.4676 24.1467 24.7937 24.393 25.1638 24.5484C26.7471 25.2131 29.2992 24.7861 30.921 24.2781C31.5886 24.0689 32.2233 23.7777 32.8745 23.526C32.8581 23.5792 32.8406 23.632 32.8221 23.6845C31.7243 26.8485 29.7285 29.5505 26.8421 31.3801C26.2447 31.7587 25.6127 32.0719 24.9749 32.3786C24.9408 32.396 24.9064 32.4126 24.8715 32.4283C21.4431 34.0149 17.488 34.0018 13.9679 32.7405C13.9287 30.2827 13.9198 27.8248 13.9413 25.3669C15.9181 23.8409 19.4855 22.5868 21.9881 22.4762Z" fill="#1E5189"/>
<path d="M18.4906 5.15048C18.9247 5.14321 19.3581 5.15618 19.791 5.18938C19.8915 5.19614 19.9919 5.20391 20.0923 5.2128C20.1927 5.22169 20.2929 5.23158 20.3931 5.24259C20.4932 5.25355 20.5932 5.26562 20.6931 5.27876C20.793 5.29184 20.8928 5.30598 20.9924 5.32118C21.092 5.33639 21.1913 5.35265 21.2906 5.36998C21.3898 5.38731 21.4889 5.40564 21.5878 5.42509C21.6866 5.44443 21.7852 5.46483 21.8837 5.48635C21.9821 5.50782 22.0803 5.53034 22.1782 5.55393C22.2762 5.57752 22.3739 5.60211 22.4713 5.62777C22.5687 5.65337 22.6659 5.67998 22.7628 5.7077C22.8596 5.73537 22.9562 5.76404 23.0524 5.79378C23.1487 5.82352 23.2446 5.85426 23.3402 5.88601C23.4358 5.91776 23.5311 5.95051 23.626 5.98427C23.7209 6.01803 23.8155 6.0528 23.9097 6.08857C24.0039 6.12429 24.0976 6.16101 24.191 6.19874C24.2844 6.23653 24.3774 6.27526 24.47 6.31501C24.5626 6.35469 24.6547 6.39538 24.7464 6.43703C24.8382 6.47867 24.9294 6.52126 25.0203 6.56486C25.1111 6.60846 25.2015 6.65301 25.2913 6.69845C25.3812 6.74395 25.4706 6.7904 25.5595 6.8378C25.6484 6.8852 25.7368 6.93355 25.8247 6.98279C25.9125 7.03203 25.9999 7.08223 26.0867 7.13326C26.1735 7.18435 26.2597 7.23639 26.3455 7.28932C26.4312 7.34226 26.5163 7.39608 26.6009 7.45081C26.6855 7.50547 26.7695 7.56109 26.8529 7.6176C26.9363 7.67411 27.0191 7.73146 27.1013 7.78976C27.1834 7.848 27.265 7.90708 27.3459 7.96706C27.4268 8.02703 27.5071 8.08779 27.5867 8.14944C27.6664 8.21115 27.7454 8.27364 27.8237 8.33697C27.9021 8.4003 27.9797 8.46447 28.0567 8.52942C28.1336 8.59443 28.2099 8.66022 28.2855 8.72679C28.3611 8.79336 28.4359 8.86077 28.5101 8.92896C29.0759 9.44706 29.5871 10.0185 30.0886 10.598C28.4944 11.223 26.8283 11.4042 25.1345 11.194C25.1441 10.7275 25.2207 10.1341 24.9577 9.72699C24.6671 9.27697 24.0508 9.11951 23.5581 9.00979C20.6301 8.35721 16.2761 10.1626 13.848 11.7101C13.851 11.3013 13.8423 10.8929 13.8217 10.4847C14.0126 10.1746 14.1966 9.88092 14.2155 9.50469C14.2347 9.12164 14.1069 8.72047 13.8386 8.44178C13.8221 8.42467 13.8051 8.40796 13.7876 8.39175C13.7702 8.37543 13.7524 8.35961 13.7342 8.3443C13.716 8.32892 13.6974 8.31406 13.6783 8.29969C13.6594 8.28533 13.64 8.27141 13.6203 8.25805C13.6006 8.24469 13.5805 8.23178 13.5602 8.21943C13.5398 8.20707 13.5191 8.19528 13.4982 8.18399C13.4772 8.1727 13.4559 8.16196 13.4343 8.15179C13.4128 8.14156 13.391 8.13195 13.3689 8.12289C13.3469 8.11384 13.3247 8.10534 13.3022 8.09741C13.2797 8.08947 13.2571 8.08215 13.2342 8.07533C13.2114 8.06862 13.1884 8.06241 13.1652 8.05683C13.142 8.05129 13.1187 8.04637 13.0953 8.04201C13.0718 8.0376 13.0483 8.0338 13.0247 8.03072C13.0011 8.02754 12.9774 8.02497 12.9536 8.02306C12.9299 8.02105 12.9062 8.01971 12.8823 8.01904C12.8585 8.01837 12.8347 8.01826 12.8108 8.01876C12.7867 8.0191 12.7626 8.02005 12.7384 8.02155C12.7144 8.02318 12.6903 8.0253 12.6664 8.02809C12.6423 8.03089 12.6184 8.03424 12.5947 8.03821C12.5708 8.04218 12.5472 8.04671 12.5236 8.05185C12.5 8.05705 12.4765 8.06286 12.4532 8.06918C12.4299 8.07549 12.4068 8.08243 12.3838 8.08992C12.3609 8.09741 12.3381 8.10551 12.3156 8.11412C12.293 8.12278 12.2707 8.132 12.2487 8.14173C12.2266 8.15157 12.2048 8.16185 12.1832 8.1727C12.1616 8.1836 12.1403 8.195 12.1194 8.20696C12.0984 8.21887 12.0777 8.23133 12.0574 8.2443C12.037 8.25727 12.017 8.27074 11.9973 8.28471C11.9776 8.29869 11.9583 8.31311 11.9394 8.32809C11.9204 8.34307 11.9018 8.35844 11.8836 8.37437C11.8655 8.39024 11.8477 8.40662 11.8304 8.42339C11.813 8.44016 11.7961 8.45737 11.7796 8.47498C11.5373 8.7349 11.3829 9.11079 11.3983 9.46808C11.4155 9.86946 11.619 10.2151 11.9086 10.4816C11.8298 13.929 11.8907 17.3897 11.8912 20.8385L11.8989 31.9784C10.9655 31.5689 10.0636 30.8404 9.31096 30.1644C6.34506 27.5005 4.68261 24.1061 4.4756 20.1203C4.27267 16.2138 5.79461 12.4829 8.40206 9.61195C10.3296 7.48965 13.1041 6.02127 15.9027 5.44639C16.7577 5.27082 17.6202 5.19491 18.4906 5.15048Z" fill="#1B568E"/>
</svg>
